<?xml version="1.0" encoding="utf-8"?><svg viewBox="0 0 69 69" xmlns="http://www.w3.org/2000/svg" xmlns:xlink="http://www.w3.org/1999/xlink"><style>:root>svg{display:none}:root>svg:target{display:block}</style><svg fill="none" viewBox="0 0 9 15" id="arrow" xmlns="http://www.w3.org/2000/svg"><path d="M.661 13.85a1.006 1.006 0 010-1.422l5.323-5.323L.66 1.783A1.006 1.006 0 112.083.361l6.034 6.033c.392.393.392 1.03 0 1.422L2.083 13.85a1.006 1.006 0 01-1.422 0z" fill="#fff"/></svg><svg fill="none" viewBox="0 0 69 69" id="designer-icon" xmlns="http://www.w3.org/2000/svg"><path fill-rule="evenodd" clip-rule="evenodd" d="M34.5 69C53.554 69 69 53.554 69 34.5 69 15.446 53.554 0 34.5 0 15.446 0 0 15.446 0 34.5 0 53.554 15.446 69 34.5 69z" fill="#FEDC5A" fill-opacity=".1"/><path d="M31 35.333a5.623 5.623 0 00-2.16 1.907 1.37 1.37 0 000 1.52A5.623 5.623 0 0031 40.667M39.28 35.333a5.623 5.623 0 012.16 1.907 1.37 1.37 0 010 1.52 5.623 5.623 0 01-2.16 1.907" stroke="#FEDC5A" stroke-width="2" stroke-linecap="round" stroke-linejoin="round"/><path d="M31 47.333h8c6.667 0 9.333-2.666 9.333-9.333v-8c0-6.667-2.666-9.333-9.333-9.333h-8c-6.667 0-9.333 2.666-9.333 9.333v8c0 6.667 2.666 9.333 9.333 9.333zM21.973 28.68l25.627-.013" stroke="#FEDC5A" stroke-width="2" stroke-linecap="round" stroke-linejoin="round"/></svg><svg fill="none" viewBox="0 0 69 69" id="dev-icon" xmlns="http://www.w3.org/2000/svg"><path fill-rule="evenodd" clip-rule="evenodd" d="M34.5 69C53.554 69 69 53.554 69 34.5 69 15.446 53.554 0 34.5 0 15.446 0 0 15.446 0 34.5 0 53.554 15.446 69 34.5 69z" fill="#5454D4" fill-opacity=".1"/><path d="M31 35.333a5.623 5.623 0 00-2.16 1.907 1.37 1.37 0 000 1.52A5.623 5.623 0 0031 40.667M39.28 35.333a5.623 5.623 0 012.16 1.907 1.37 1.37 0 010 1.52 5.623 5.623 0 01-2.16 1.907" stroke="#5454D4" stroke-width="2" stroke-linecap="round" stroke-linejoin="round"/><path d="M31 47.333h8c6.667 0 9.333-2.666 9.333-9.333v-8c0-6.667-2.666-9.333-9.333-9.333h-8c-6.667 0-9.333 2.666-9.333 9.333v8c0 6.667 2.666 9.333 9.333 9.333zM21.973 28.68l25.627-.013" stroke="#5454D4" stroke-width="2" stroke-linecap="round" stroke-linejoin="round"/></svg><svg fill="none" viewBox="0 0 69 69" id="graphic-icon" xmlns="http://www.w3.org/2000/svg"><path fill-rule="evenodd" clip-rule="evenodd" d="M34.5 69C53.554 69 69 53.554 69 34.5 69 15.446 53.554 0 34.5 0 15.446 0 0 15.446 0 34.5 0 53.554 15.446 69 34.5 69z" fill="#FEDC5A" fill-opacity=".1"/><path d="M42.2 43.667H27.8c-2 0-2.8-.854-2.8-2.974v-1.386c0-2.12.8-2.974 2.8-2.974h14.4c2 0 2.8.854 2.8 2.974v1.386c0 2.12-.8 2.974-2.8 2.974zM39.533 32.333h-9.066c-2 0-2.8-.853-2.8-2.973v-1.387c0-2.12.8-2.973 2.8-2.973h9.066c2 0 2.8.853 2.8 2.973v1.387c0 2.12-.8 2.973-2.8 2.973zM35 47.333v-3.2M35 35.333v-2.666" stroke="#FEDC5A" stroke-width="2" stroke-linecap="round" stroke-linejoin="round"/><path d="M35 20.667v3.586" stroke="#292D32" stroke-width="2" stroke-linecap="round" stroke-linejoin="round"/></svg><svg fill="none" viewBox="0 0 69 69" id="photo-icon" xmlns="http://www.w3.org/2000/svg"><path fill-rule="evenodd" clip-rule="evenodd" d="M34.5 69C53.554 69 69 53.554 69 34.5 69 15.446 53.554 0 34.5 0 15.446 0 0 15.446 0 34.5 0 53.554 15.446 69 34.5 69z" fill="#5454D4" fill-opacity=".1"/><path d="M28.013 47.333h13.974c3.68 0 5.146-2.253 5.32-5L48 31.32c.187-2.88-2.107-5.32-5-5.32-.813 0-1.56-.467-1.933-1.187l-.96-1.933c-.614-1.213-2.214-2.213-3.574-2.213H33.48c-1.373 0-2.973 1-3.587 2.213l-.96 1.933A2.191 2.191 0 0127 26c-2.893 0-5.187 2.44-5 5.32l.693 11.013c.16 2.747 1.64 5 5.32 5zM33 28.667h4" stroke="#5454D4" stroke-width="2" stroke-linecap="round" stroke-linejoin="round"/><path d="M35 42a4.342 4.342 0 004.333-4.333A4.342 4.342 0 0035 33.333a4.342 4.342 0 00-4.333 4.334A4.342 4.342 0 0035 42z" stroke="#5454D4" stroke-width="2" stroke-linecap="round" stroke-linejoin="round"/></svg><svg fill="none" viewBox="0 0 13 13" id="servise-icon" xmlns="http://www.w3.org/2000/svg"><path d="M2.114 1.028c0-.556.45-1.006 1.005-1.006h8.045c.555 0 1.005.45 1.005 1.006v8.044a1.005 1.005 0 11-2.01 0V3.455l-8.34 8.34a1.006 1.006 0 01-1.422-1.423l8.34-8.339H3.118c-.555 0-1.005-.45-1.005-1.005z" fill="#fff"/></svg><svg fill="none" viewBox="0 0 69 69" id="uiux-icon" xmlns="http://www.w3.org/2000/svg"><path fill-rule="evenodd" clip-rule="evenodd" d="M34.5 69C53.554 69 69 53.554 69 34.5 69 15.446 53.554 0 34.5 0 15.446 0 0 15.446 0 34.5 0 53.554 15.446 69 34.5 69z" fill="#F04037" fill-opacity=".1"/><path d="M36.347 21.893l7.866 3.494c2.267 1 2.267 2.653 0 3.653l-7.866 3.493c-.894.4-2.36.4-3.254 0l-7.866-3.493c-2.267-1-2.267-2.653 0-3.653l7.866-3.494c.894-.4 2.36-.4 3.254 0z" stroke="#F04037" stroke-width="2" stroke-linecap="round" stroke-linejoin="round"/><path d="M23 32.667c0 1.12.84 2.413 1.867 2.866l9.053 4.027a2.65 2.65 0 002.16 0l9.053-4.027C46.16 35.08 47 33.787 47 32.667" stroke="#F04037" stroke-width="2" stroke-linecap="round" stroke-linejoin="round"/><path d="M23 39.333c0 1.24.733 2.36 1.867 2.867l9.053 4.027c.693.306 1.48.306 2.16 0l9.053-4.027A3.143 3.143 0 0047 39.333" stroke="#F04037" stroke-width="2" stroke-linecap="round" stroke-linejoin="round"/></svg><svg fill="none" viewBox="0 0 69 69" id="vidograph-icon" xmlns="http://www.w3.org/2000/svg"><path fill-rule="evenodd" clip-rule="evenodd" d="M34.5 69C53.554 69 69 53.554 69 34.5 69 15.446 53.554 0 34.5 0 15.446 0 0 15.446 0 34.5 0 53.554 15.446 69 34.5 69z" fill="#F04037" fill-opacity=".1"/><path d="M48.333 38v-8c0-6.667-2.666-9.333-9.333-9.333h-8c-6.667 0-9.333 2.666-9.333 9.333v8c0 6.667 2.666 9.333 9.333 9.333h8c6.667 0 9.333-2.666 9.333-9.333zM22.36 27.48h25.28M30.36 20.813v6.48M39.64 20.813v5.88" stroke="#F04037" stroke-width="2" stroke-linecap="round" stroke-linejoin="round"/><path d="M32 37.267v-1.6c0-2.054 1.453-2.894 3.227-1.867l1.386.8 1.387.8c1.773 1.027 1.773 2.707 0 3.733l-1.387.8-1.386.8C33.453 41.76 32 40.92 32 38.867v-1.6 0z" stroke="#F04037" stroke-width="2" stroke-miterlimit="10" stroke-linecap="round" stroke-linejoin="round"/></svg></svg>